<mxfile host="Electron" modified="2024-04-15T17:55:56.464Z" agent="Mozilla/5.0 (Windows NT 10.0; Win64; x64) AppleWebKit/537.36 (KHTML, like Gecko) draw.io/23.1.5 Chrome/120.0.6099.109 Electron/28.1.0 Safari/537.36" etag="UfIhUOvojnUN3vgF-Fuv" version="23.1.5" type="device">
  <diagram name="Страница — 1" id="3XUkdlGBfa2dTvdSacKE">
    <mxGraphModel dx="-35" dy="1236" grid="1" gridSize="10" guides="1" tooltips="1" connect="1" arrows="1" fold="1" page="1" pageScale="1" pageWidth="827" pageHeight="1169" math="0" shadow="0">
      <root>
        <mxCell id="0" />
        <mxCell id="1" parent="0" />
        <mxCell id="MQZtrUQ6gIj5jwdiXAZS-1" value="Юр. лицо" style="shape=table;startSize=30;container=1;collapsible=1;childLayout=tableLayout;fixedRows=1;rowLines=0;fontStyle=1;align=center;resizeLast=1;html=1;" vertex="1" parent="1">
          <mxGeometry x="930" y="470" width="180" height="120" as="geometry" />
        </mxCell>
        <mxCell id="MQZtrUQ6gIj5jwdiXAZS-2" value="" style="shape=tableRow;horizontal=0;startSize=0;swimlaneHead=0;swimlaneBody=0;fillColor=none;collapsible=0;dropTarget=0;points=[[0,0.5],[1,0.5]];portConstraint=eastwest;top=0;left=0;right=0;bottom=1;" vertex="1" parent="MQZtrUQ6gIj5jwdiXAZS-1">
          <mxGeometry y="30" width="180" height="30" as="geometry" />
        </mxCell>
        <mxCell id="MQZtrUQ6gIj5jwdiXAZS-3" value="PK FK" style="shape=partialRectangle;connectable=0;fillColor=none;top=0;left=0;bottom=0;right=0;fontStyle=1;overflow=hidden;whiteSpace=wrap;html=1;" vertex="1" parent="MQZtrUQ6gIj5jwdiXAZS-2">
          <mxGeometry width="30" height="30" as="geometry">
            <mxRectangle width="30" height="30" as="alternateBounds" />
          </mxGeometry>
        </mxCell>
        <mxCell id="MQZtrUQ6gIj5jwdiXAZS-4" value="Номер потребителя" style="shape=partialRectangle;connectable=0;fillColor=none;top=0;left=0;bottom=0;right=0;align=left;spacingLeft=6;fontStyle=5;overflow=hidden;whiteSpace=wrap;html=1;" vertex="1" parent="MQZtrUQ6gIj5jwdiXAZS-2">
          <mxGeometry x="30" width="150" height="30" as="geometry">
            <mxRectangle width="150" height="30" as="alternateBounds" />
          </mxGeometry>
        </mxCell>
        <mxCell id="MQZtrUQ6gIj5jwdiXAZS-5" value="" style="shape=tableRow;horizontal=0;startSize=0;swimlaneHead=0;swimlaneBody=0;fillColor=none;collapsible=0;dropTarget=0;points=[[0,0.5],[1,0.5]];portConstraint=eastwest;top=0;left=0;right=0;bottom=0;" vertex="1" parent="MQZtrUQ6gIj5jwdiXAZS-1">
          <mxGeometry y="60" width="180" height="30" as="geometry" />
        </mxCell>
        <mxCell id="MQZtrUQ6gIj5jwdiXAZS-6" value="АК" style="shape=partialRectangle;connectable=0;fillColor=none;top=0;left=0;bottom=0;right=0;editable=1;overflow=hidden;whiteSpace=wrap;html=1;" vertex="1" parent="MQZtrUQ6gIj5jwdiXAZS-5">
          <mxGeometry width="30" height="30" as="geometry">
            <mxRectangle width="30" height="30" as="alternateBounds" />
          </mxGeometry>
        </mxCell>
        <mxCell id="MQZtrUQ6gIj5jwdiXAZS-7" value="ОГРН" style="shape=partialRectangle;connectable=0;fillColor=none;top=0;left=0;bottom=0;right=0;align=left;spacingLeft=6;overflow=hidden;whiteSpace=wrap;html=1;" vertex="1" parent="MQZtrUQ6gIj5jwdiXAZS-5">
          <mxGeometry x="30" width="150" height="30" as="geometry">
            <mxRectangle width="150" height="30" as="alternateBounds" />
          </mxGeometry>
        </mxCell>
        <mxCell id="MQZtrUQ6gIj5jwdiXAZS-8" value="" style="shape=tableRow;horizontal=0;startSize=0;swimlaneHead=0;swimlaneBody=0;fillColor=none;collapsible=0;dropTarget=0;points=[[0,0.5],[1,0.5]];portConstraint=eastwest;top=0;left=0;right=0;bottom=0;" vertex="1" parent="MQZtrUQ6gIj5jwdiXAZS-1">
          <mxGeometry y="90" width="180" height="30" as="geometry" />
        </mxCell>
        <mxCell id="MQZtrUQ6gIj5jwdiXAZS-9" value="" style="shape=partialRectangle;connectable=0;fillColor=none;top=0;left=0;bottom=0;right=0;editable=1;overflow=hidden;whiteSpace=wrap;html=1;" vertex="1" parent="MQZtrUQ6gIj5jwdiXAZS-8">
          <mxGeometry width="30" height="30" as="geometry">
            <mxRectangle width="30" height="30" as="alternateBounds" />
          </mxGeometry>
        </mxCell>
        <mxCell id="MQZtrUQ6gIj5jwdiXAZS-10" value="Наименование" style="shape=partialRectangle;connectable=0;fillColor=none;top=0;left=0;bottom=0;right=0;align=left;spacingLeft=6;overflow=hidden;whiteSpace=wrap;html=1;" vertex="1" parent="MQZtrUQ6gIj5jwdiXAZS-8">
          <mxGeometry x="30" width="150" height="30" as="geometry">
            <mxRectangle width="150" height="30" as="alternateBounds" />
          </mxGeometry>
        </mxCell>
        <mxCell id="MQZtrUQ6gIj5jwdiXAZS-17" style="edgeStyle=orthogonalEdgeStyle;rounded=0;orthogonalLoop=1;jettySize=auto;html=1;exitX=0.75;exitY=0;exitDx=0;exitDy=0;" edge="1" parent="1" source="MQZtrUQ6gIj5jwdiXAZS-11">
          <mxGeometry relative="1" as="geometry">
            <mxPoint x="1310" y="530" as="targetPoint" />
            <Array as="points">
              <mxPoint x="1255" y="530" />
            </Array>
          </mxGeometry>
        </mxCell>
        <mxCell id="MQZtrUQ6gIj5jwdiXAZS-18" style="edgeStyle=orthogonalEdgeStyle;rounded=0;orthogonalLoop=1;jettySize=auto;html=1;entryX=0.5;entryY=1;entryDx=0;entryDy=0;" edge="1" parent="1" source="MQZtrUQ6gIj5jwdiXAZS-11" target="MQZtrUQ6gIj5jwdiXAZS-12">
          <mxGeometry relative="1" as="geometry" />
        </mxCell>
        <mxCell id="MQZtrUQ6gIj5jwdiXAZS-11" value="ОГРН" style="whiteSpace=wrap;html=1;align=center;" vertex="1" parent="1">
          <mxGeometry x="1180" y="550" width="100" height="40" as="geometry" />
        </mxCell>
        <mxCell id="MQZtrUQ6gIj5jwdiXAZS-14" style="edgeStyle=orthogonalEdgeStyle;rounded=0;orthogonalLoop=1;jettySize=auto;html=1;exitX=0.25;exitY=1;exitDx=0;exitDy=0;entryX=0.25;entryY=0;entryDx=0;entryDy=0;" edge="1" parent="1" source="MQZtrUQ6gIj5jwdiXAZS-12" target="MQZtrUQ6gIj5jwdiXAZS-11">
          <mxGeometry relative="1" as="geometry" />
        </mxCell>
        <mxCell id="MQZtrUQ6gIj5jwdiXAZS-16" style="edgeStyle=orthogonalEdgeStyle;rounded=0;orthogonalLoop=1;jettySize=auto;html=1;exitX=0.75;exitY=1;exitDx=0;exitDy=0;entryX=0;entryY=0.5;entryDx=0;entryDy=0;" edge="1" parent="1" source="MQZtrUQ6gIj5jwdiXAZS-12" target="MQZtrUQ6gIj5jwdiXAZS-13">
          <mxGeometry relative="1" as="geometry" />
        </mxCell>
        <mxCell id="MQZtrUQ6gIj5jwdiXAZS-12" value="Номер потребителя" style="whiteSpace=wrap;html=1;align=center;" vertex="1" parent="1">
          <mxGeometry x="1180" y="470" width="100" height="40" as="geometry" />
        </mxCell>
        <mxCell id="MQZtrUQ6gIj5jwdiXAZS-13" value="Наименование" style="whiteSpace=wrap;html=1;align=center;" vertex="1" parent="1">
          <mxGeometry x="1310" y="510" width="100" height="40" as="geometry" />
        </mxCell>
      </root>
    </mxGraphModel>
  </diagram>
</mxfile>
